<?xml version="1.0" encoding="utf-8"?>
<!-- Generator: Adobe Illustrator 27.0.0, SVG Export Plug-In . SVG Version: 6.00 Build 0)  -->
<svg version="1.1" id="Layer_1" xmlns="http://www.w3.org/2000/svg" xmlns:xlink="http://www.w3.org/1999/xlink" x="0px" y="0px"
	 viewBox="0 0 1200 1061.43" style="enable-background:new 0 0 1200 1061.43;" xml:space="preserve">
<style type="text/css">
	.st0{fill:#FFFFFF;}
	.st1{fill:#F15E8C;}
</style>
<g>
	<path class="st0" d="M783.49,644.62c21.88-26.96,43.88-53.82,65.84-80.71c0.56-0.68,1.15-1.35,1.81-1.93
		c3.14-2.8,7.13-3.02,10.59-0.61c0.97,0.67,1.9,1.39,2.67,1.95c7.03-8.6,13.94-17.06,20.87-25.53
		c-15.4-16.59-25.87-35.96-30.49-58.44c-2.84-13.82-3.52-27.68-1.66-41.68c3.3-24.86,13.48-46.58,30.07-65.26
		c13.93-15.68,30.81-27.14,50.77-33.81c6.2-2.07,12.61-3.54,18.92-5.28c6.16-0.62,12.32-1.25,18.49-1.87
		c3.59,0.11,7.2,0.07,10.78,0.36c31.22,2.47,58.2,14.37,79.94,37.06c27.78,29,38.51,63.83,33.16,103.39
		c-3.48,25.77-14.8,48.1-33.07,66.64c-29.87,30.32-66.21,41.64-108.06,35.67c-15.93-2.28-30.65-8.24-44.49-16.81
		c-3.51,4.36-6.88,8.59-10.3,12.79c-3.47,4.28-6.98,8.52-10.47,12.79c8.06,6.08,6.1,11.33,1.49,16.91
		c-20.35,24.64-40.56,49.4-60.63,74.27c-5.06,6.27-10.39,11.92-18.22,14.6c-3.08,0.31-6.16,0.62-9.24,0.94
		c-5.91-0.99-11.51-2.74-16.1-6.83C774.86,673.15,773.62,656.77,783.49,644.62z"/>
	<path d="M786.15,683.21c2.23,2,4.74,3.44,7.38,4.5c2.76,1.13,5.69,1.83,8.71,2.33l9.24-0.94c6.57-2.25,11.38-6.6,15.75-11.65
		c0.84-0.96,1.66-1.95,2.47-2.96c4.92-6.1,9.85-12.18,14.78-18.25c6.5-8.03,13.04-16.03,19.57-24.01
		c5.42-6.64,10.84-13.26,16.28-19.87c3.33-4.05,6.65-8.1,9.99-12.13c4.62-5.58,6.57-10.83-1.49-16.91c3.5-4.27,7-8.52,10.47-12.79
		c3.42-4.2,6.79-8.44,10.29-12.8c13.85,8.57,28.57,14.54,44.5,16.82c41.84,5.97,78.19-5.36,108.05-35.67
		c18.28-18.54,29.58-40.87,33.07-66.64c5.36-39.55-5.37-74.39-33.16-103.39c-21.74-22.69-48.72-34.58-79.94-37.06
		c-3.58-0.29-7.19-0.25-10.78-0.35l-18.48,1.87c-6.32,1.75-12.72,3.2-18.93,5.28c-19.95,6.67-36.83,18.13-50.77,33.81
		c-16.58,18.67-26.77,40.39-30.07,65.25c-1.86,14-1.19,27.87,1.66,41.69c4.62,22.47,15.1,41.84,30.49,58.43
		c-6.93,8.48-13.84,16.94-20.86,25.53c-0.77-0.56-1.7-1.27-2.67-1.94c-3.46-2.41-7.45-2.19-10.59,0.6
		c-0.66,0.59-1.25,1.26-1.81,1.94c-9.79,11.98-19.58,23.96-29.37,35.94c-12.17,14.91-24.34,29.82-36.47,44.76
		C773.62,656.78,774.86,673.16,786.15,683.21z M869.47,464.63c-5.74-58.19,36.17-108.61,92.39-115.24
		c58.72-6.94,111.43,35.03,117.35,93.87c5.93,58.83-36.33,109.33-93.66,115.45C927.27,564.91,875.34,522.62,869.47,464.63z"/>
	<path d="M903.72,711.41c-3.08,10.91-8.94,19.69-14.11,27.45c-1.53,2.29-2.98,4.47-4.27,6.59l-0.53,0.83
		c-6.01,9.21-13.47,20.68-26.97,27.71c-7.35,4.07-15.91,6.22-24.77,6.22c-0.05,0-0.1-0.01-0.17-0.01c-0.04,0-0.06,0.01-0.1,0.01
		c-0.06,0-0.12-0.01-0.17-0.01c-0.04,0-0.08,0.01-0.12,0.01c-0.05,0-0.1-0.01-0.17-0.01c-0.03,0-0.06,0.01-0.1,0.01
		c-0.05,0-0.12-0.01-0.17-0.01c-0.04,0-0.08,0.01-0.12,0.01c-0.05,0-0.1-0.01-0.16-0.01c-0.04,0-0.08,0.01-0.12,0.01
		c-0.05,0-0.12-0.01-0.17-0.01c-0.04,0-0.08,0.01-0.1,0.01c-0.06,0-0.12-0.01-0.17-0.01c-0.04,0-0.08,0.01-0.12,0.01
		c-12.01,0-24-3.81-33.8-10.73c-1.31-0.89-2.54-1.85-3.71-2.88c-0.38-0.31-0.75-0.61-1.11-0.93c-0.38-0.3-0.75-0.61-1.11-0.92
		c-0.38-0.31-0.75-0.61-1.11-0.93c-0.36-0.3-0.74-0.61-1.1-0.92c-0.38-0.31-0.75-0.61-1.11-0.93c-1.42-1.15-2.77-2.4-4.03-3.73
		c-0.67-0.62-1.32-1.27-1.94-1.94c-0.34-0.31-0.65-0.65-0.97-0.97c-0.7,0.97-1.39,1.96-2.11,2.89l-0.25,0.31
		c-4.12,5.09-8.89,8.5-12.72,11.23c-1.15,0.83-2.24,1.61-3.16,2.32l-0.23,0.18l-0.25,0.18c-14.74,10.8-32.45,16.75-49.82,16.75
		c-0.05,0-0.1-0.01-0.14-0.01c-0.05,0-0.09,0.01-0.14,0.01c-0.04,0-0.09-0.01-0.14-0.01c-0.04,0-0.09,0.01-0.13,0.01
		c-0.05,0-0.1-0.01-0.14-0.01c-0.05,0-0.09,0.01-0.14,0.01c-0.04,0-0.09-0.01-0.14-0.01c-0.04,0-0.09,0.01-0.13,0.01
		c-0.05,0-0.09-0.01-0.14-0.01c-0.05,0-0.09,0.01-0.14,0.01c-0.04,0-0.09-0.01-0.13-0.01c-0.05,0-0.09,0.01-0.14,0.01
		c-0.05,0-0.09-0.01-0.14-0.01c-0.04,0-0.09,0.01-0.13,0.01c-4.05,0-8.08-0.34-12-0.98l-0.35-0.06c-8.07-1.5-15.66-4.87-22.44-9.78
		c-2.11,2.25-4.48,4.43-7.24,6.44c-5.31,4.09-11.87,6.17-19.5,6.17h-1.94c-2.33,0-4.44-0.18-6.14-0.32l-1.72-0.14
		c-10.45-1.05-19.46-4.37-26.4-9.5c-1.37,1.58-2.82,3.12-4.43,4.61c-8.28,7.81-19.68,12.28-31.32,12.28h-1.94
		c-4.09,0-8.12-0.56-11.96-1.65c-5.19-1.35-10.2-3.42-14.88-6.1c-3.36,4.26-7.5,8.54-13.08,12.07c-5.6,3.55-11.97,5.36-18.9,5.36
		h-1.94c-7.36,0-15.16-2.09-23.85-6.4c-3.58-1.7-6.88-3.89-9.88-6.45c-0.38-0.3-0.74-0.61-1.11-0.92c-0.38-0.3-0.74-0.61-1.1-0.92
		c-0.38-0.31-0.75-0.62-1.11-0.93c-0.38-0.3-0.74-0.61-1.11-0.92c-0.38-0.31-0.74-0.62-1.1-0.93c-1.01-0.8-1.97-1.67-2.9-2.55
		c-0.74,3.38-1.65,6.84-2.91,10.32l-3.9,10.82l-11.36,1.77c-3.93,0.62-7.45,0.92-10.75,0.92h-1.94c-6.98,0-13.21-1.37-18.63-4.05
		c-6.33,4.86-14.37,7.54-22.96,7.54h-1.94c-5.51,0-11.06-1.1-16.08-3.2c-0.8-0.31-1.65-0.61-2.49-0.91
		c-4.11-1.48-10.25-3.68-15.64-8.36c-0.38-0.3-0.74-0.61-1.11-0.93c-0.36-0.3-0.74-0.61-1.1-0.92c-0.38-0.3-0.75-0.61-1.11-0.93
		c-0.38-0.3-0.74-0.6-1.11-0.92c-0.36-0.3-0.74-0.61-1.1-0.92c-1.28-1.02-2.54-2.16-3.72-3.47c-0.67-0.61-1.32-1.24-1.94-1.94
		c-0.67-0.61-1.32-1.24-1.94-1.94c-0.67-0.61-1.32-1.24-1.94-1.94c-0.67-0.61-1.32-1.24-1.94-1.94c-0.67-0.61-1.32-1.24-1.94-1.94
		c-0.67-0.61-1.32-1.24-1.94-1.94c-0.67-0.61-1.32-1.24-1.94-1.94c-0.67-0.61-1.32-1.24-1.94-1.94c-0.67-0.61-1.32-1.24-1.94-1.94
		c-0.67-0.61-1.32-1.24-1.94-1.94c-0.67-0.61-1.32-1.24-1.94-1.94c-0.67-0.61-1.32-1.24-1.94-1.94c-0.67-0.61-1.32-1.24-1.94-1.94
		c-0.67-0.61-1.32-1.24-1.94-1.94c-0.67-0.61-1.32-1.24-1.94-1.94c-0.67-0.61-1.32-1.24-1.94-1.94c-0.67-0.61-1.32-1.24-1.94-1.94
		c-0.67-0.61-1.32-1.24-1.94-1.94c-0.67-0.61-1.32-1.24-1.94-1.94c-0.67-0.61-1.32-1.24-1.94-1.94c-0.67-0.61-1.32-1.24-1.94-1.94
		c-1.63-1.49-3.17-3.2-4.56-5.22c-6.81-9.5-9.66-19.81-11.06-29.54c-3.64,0.58-7.32,1.2-11.11,1.88c-5.47,23.21-12.7,47-21.97,72.3
		l-0.17,0.45l-0.18,0.44c-0.76,1.81-1.52,3.67-2.28,5.54c-5.7,14.04-12.8,31.53-30.25,42.83l-0.18,0.12
		c-8.01,5.05-17.22,7.62-27.4,7.62c0,0-1.93,0-1.94,0c-12.22,0-22.75-3.72-29.64-6.97c-2.01-0.84-4.13-2.09-6.13-3.86
		c-0.38-0.29-0.74-0.6-1.11-0.92c-0.38-0.3-0.74-0.6-1.1-0.93c-0.38-0.29-0.75-0.6-1.11-0.92c-0.38-0.28-0.75-0.6-1.11-0.92
		c-0.38-0.3-0.74-0.61-1.11-0.93c-1.01-0.79-2.01-1.71-2.95-2.77c-0.66-0.58-1.31-1.23-1.94-1.94c-0.66-0.58-1.31-1.23-1.94-1.94
		c-0.66-0.58-1.31-1.23-1.94-1.94c-0.66-0.58-1.31-1.23-1.94-1.94c-0.66-0.58-1.31-1.23-1.94-1.94c-0.66-0.58-1.31-1.23-1.94-1.94
		c-0.66-0.58-1.31-1.23-1.94-1.94c-0.66-0.58-1.31-1.23-1.94-1.94c-0.66-0.58-1.31-1.23-1.94-1.94c-0.66-0.58-1.31-1.23-1.94-1.94
		c-0.66-0.58-1.31-1.23-1.94-1.94c-0.66-0.58-1.31-1.23-1.94-1.94c-0.66-0.58-1.31-1.23-1.94-1.94c-0.66-0.58-1.31-1.23-1.94-1.94
		c-0.66-0.58-1.31-1.23-1.94-1.94c-0.66-0.58-1.31-1.23-1.94-1.94c-0.66-0.58-1.31-1.23-1.94-1.94c-0.66-0.58-1.31-1.23-1.94-1.94
		c-0.66-0.58-1.31-1.23-1.94-1.94c-0.66-0.58-1.31-1.23-1.94-1.94c-0.66-0.58-1.31-1.23-1.94-1.94c-3.43-3.02-6.46-7.63-7.73-14.68
		l-6.23-19.07l20.23-5.05c3.5-0.88,6.67-1.09,9.25-1.15c0.32-0.49,0.73-1.13,1.18-1.93c10.88-19.21,17.09-40.7,22.5-61.09
		c0.48-2.06,0.98-4,1.48-5.89c0.88-3.39,1.71-6.61,1.97-9.22l0.09-0.89l21.54-112.74l2.05-14.24l0.8-0.95l0.74-4.05
		c-0.25-0.21-0.49-0.41-0.74-0.63c-0.82-0.78-1.59-1.55-2.34-2.34c-0.67-0.65-1.32-1.3-1.94-1.94c-0.67-0.65-1.32-1.3-1.94-1.94
		c-0.67-0.65-1.32-1.3-1.94-1.94c-0.67-0.65-1.32-1.3-1.94-1.94c-0.67-0.65-1.32-1.3-1.94-1.94c-0.67-0.65-1.32-1.3-1.94-1.94
		c-0.67-0.65-1.32-1.3-1.94-1.94c-0.67-0.65-1.32-1.3-1.94-1.94c-0.67-0.65-1.32-1.3-1.94-1.94c-0.67-0.65-1.32-1.3-1.94-1.94
		c-0.67-0.65-1.32-1.3-1.94-1.94c-0.67-0.65-1.32-1.3-1.94-1.94c-0.67-0.65-1.32-1.3-1.94-1.94c-0.67-0.65-1.32-1.3-1.94-1.94
		c-0.67-0.65-1.32-1.3-1.94-1.94c-0.67-0.65-1.32-1.3-1.94-1.94c-0.67-0.65-1.32-1.3-1.94-1.94c-0.67-0.65-1.32-1.3-1.94-1.94
		c-0.67-0.65-1.32-1.3-1.94-1.94c-0.67-0.65-1.32-1.3-1.94-1.94c-0.67-0.65-1.32-1.3-1.94-1.94c-5.6-5.35-9.22-11.04-12.41-16.06
		c-1.06-1.67-2.06-3.25-3.04-4.66l-0.38-0.54c0,0-0.87-1.42-1.14-1.87c-3.86-6.31-11.91-19.44-4.84-34.52l0.44-0.93l0.53-0.87
		c9.85-16.31,24.2-29.64,41.52-38.55l0.27-0.14c0.62-0.31,1.24-0.62,1.87-0.95c1.98-1.01,4.27-2.18,6.88-3.25
		c-0.45-0.44-0.89-0.89-1.32-1.36c-0.67-0.62-1.32-1.27-1.94-1.94c-0.67-0.62-1.32-1.27-1.94-1.94c-0.67-0.62-1.32-1.27-1.94-1.94
		c-1.48-1.35-2.82-2.81-4-4.42c-6.22-8.36-9.07-17.04-11.59-24.69c-0.79-2.42-1.54-4.72-2.34-6.79l-0.1-0.27l-0.09-0.27
		c-5.3-15.09-5.4-27.96-0.31-39.32l0.16-0.34c4.61-9.77,11.41-17.41,17.98-24.41l0.26-0.26c15.58-15.99,34.93-30.04,59.11-42.98
		c22.96-12.89,46.57-22.61,70.2-28.89c5.39-1.66,10.22-2.47,14.78-2.47h1.94c6.4,0,12.19,1.57,17.22,4.66
		c1.75,0.88,3.63,1.77,5.58,2.72c7.58,3.61,16.24,7.8,23.72,14.16c0.38,0.3,0.74,0.61,1.11,0.92c0.38,0.3,0.74,0.61,1.11,0.93
		c0.36,0.3,0.74,0.61,1.1,0.92c0.38,0.3,0.75,0.61,1.11,0.92c0.38,0.31,0.74,0.62,1.11,0.93c1.84,1.49,3.63,3.11,5.3,4.87
		c0.66,0.62,1.31,1.27,1.94,1.94c0.66,0.62,1.31,1.27,1.94,1.94c0.66,0.62,1.31,1.27,1.94,1.94c0.66,0.62,1.31,1.27,1.94,1.94
		c0.66,0.62,1.31,1.27,1.94,1.94c0.66,0.62,1.31,1.27,1.94,1.94c0.66,0.62,1.31,1.27,1.94,1.94c0.66,0.62,1.31,1.27,1.94,1.94
		c0.66,0.62,1.31,1.27,1.94,1.94c0.66,0.62,1.31,1.27,1.94,1.94c0.66,0.62,1.31,1.27,1.94,1.94c0.66,0.62,1.31,1.27,1.94,1.94
		c0.66,0.62,1.31,1.27,1.94,1.94c0.66,0.62,1.31,1.27,1.94,1.94c0.66,0.62,1.31,1.27,1.94,1.94c0.66,0.62,1.31,1.27,1.94,1.94
		c0.66,0.62,1.31,1.27,1.94,1.94c0.66,0.62,1.31,1.27,1.94,1.94c0.6,0.56,1.17,1.14,1.74,1.74l0.26-0.82h1.94l14.56,0.21
		c6.59,0.1,22.83,0.35,34.45,10.89c0.36,0.3,0.75,0.6,1.11,0.92c0.36,0.31,0.74,0.6,1.1,0.92c0.38,0.31,0.75,0.6,1.11,0.93
		c0.38,0.31,0.75,0.6,1.11,0.92c0.36,0.31,0.74,0.6,1.1,0.93c1.15,0.95,2.27,1.96,3.32,3.11c0.67,0.61,1.32,1.26,1.94,1.94
		c0.25,0.22,0.47,0.45,0.69,0.69c0.23-0.34,0.47-0.67,0.71-1l0.19-0.29l0.6-0.76c5.82-7.47,13.77-17.67,27.54-22.4
		c4.43-1.66,9.18-2.5,14.12-2.5c0.04,0,0.06,0.01,0.1,0.01c0.05,0,0.12-0.01,0.17-0.01c0.04,0,0.08,0.01,0.1,0.01
		c0.06,0,0.12-0.01,0.18-0.01c0.04,0,0.06,0.01,0.1,0.01c0.05,0,0.12-0.01,0.17-0.01c0.04,0,0.08,0.01,0.1,0.01
		c0.06,0,0.12-0.01,0.18-0.01c0.03,0,0.06,0.01,0.1,0.01c0.05,0,0.12-0.01,0.17-0.01c0.04,0,0.06,0.01,0.1,0.01
		c0.06,0,0.12-0.01,0.18-0.01c0.03,0,0.06,0.01,0.1,0.01c0.05,0,0.1-0.01,0.17-0.01c8.85,0,16.66,2.64,22.94,4.77
		c0.93,0.31,1.84,0.62,2.75,0.92l0.62,0.21l0.61,0.25c6.53,2.63,11.44,5.65,15.14,8.86c0.38,0.31,0.75,0.62,1.1,0.93
		c0.39,0.3,0.76,0.61,1.11,0.92c0.39,0.31,0.75,0.62,1.11,0.93c0.38,0.3,0.75,0.61,1.11,0.92c0.38,0.31,0.75,0.62,1.1,0.93
		c1.48,1.18,2.79,2.38,3.93,3.61c0.7,0.65,1.33,1.3,1.94,1.94c0.7,0.65,1.33,1.3,1.94,1.94c0.7,0.65,1.33,1.3,1.94,1.94
		c0.7,0.65,1.33,1.3,1.94,1.94c0.7,0.65,1.33,1.3,1.94,1.94c0.7,0.65,1.33,1.3,1.94,1.94c0.7,0.65,1.33,1.3,1.96,1.96
		c4.47-6.7,9.26-12.57,14.43-17.64c7.1-7,14.9-12.49,23.45-16.52c5.14-2.69,10.95-4.07,17.28-4.07h1.94c5.17,0,9.91,0.89,13.72,1.61
		c0.82,0.16,1.63,0.31,2.42,0.44c0.14,0.03,0.27,0.05,0.41,0.08l0.51,0.09l0.51,0.1c0.96,0.22,1.94,0.41,2.93,0.62
		c6.53,1.35,14.63,3.01,22.24,8.23c0.92,0.6,1.77,1.27,2.58,1.99c0.39,0.3,0.75,0.6,1.11,0.92c0.38,0.3,0.75,0.61,1.11,0.92
		c0.38,0.3,0.75,0.61,1.1,0.93c0.39,0.3,0.75,0.61,1.11,0.92c0.16,0.13,0.3,0.26,0.45,0.38c8.45-9.31,20.16-16.36,33.97-20.38
		l6.59-1.93l0.12,0.05l0.17-0.05l0.12,0.05l0.16-0.05l0.12,0.05l0.17-0.05l0.1,0.05l0.17-0.05l0.12,0.05l0.16-0.05l0.12,0.05
		l0.17-0.05l0.12,0.05l0.16-0.05l6.35,2.66c3.87,1.63,7.37,3.85,10.43,6.53c0.38,0.3,0.75,0.61,1.11,0.92
		c0.36,0.31,0.74,0.61,1.1,0.93c0.38,0.3,0.75,0.61,1.11,0.92c0.38,0.31,0.75,0.61,1.11,0.93c0.38,0.3,0.75,0.61,1.1,0.92
		c0.26,0.21,0.49,0.43,0.75,0.63c4.57-2.64,9.31-5.32,14.63-7.68l2.68-1.18l2.91-0.35c1.22-0.14,3.07-0.34,5.19-0.34h1.94
		c4.73,0,9.08,0.96,12.97,2.86l0.23,0.1c5.54,2.47,12.58,5.62,18.73,10.91c0.38,0.3,0.75,0.61,1.11,0.92
		c0.38,0.31,0.74,0.62,1.11,0.93c0.38,0.3,0.74,0.61,1.1,0.92c0.38,0.31,0.75,0.61,1.11,0.93c0.38,0.3,0.74,0.61,1.11,0.92
		c1.57,1.27,3.1,2.67,4.55,4.22c0.66,0.62,1.31,1.26,1.94,1.94c0.66,0.62,1.31,1.26,1.94,1.94c0.66,0.62,1.31,1.26,1.94,1.94
		c0.66,0.62,1.31,1.26,1.94,1.94c0.66,0.62,1.31,1.26,1.94,1.94c0.66,0.62,1.31,1.26,1.94,1.94c0.66,0.62,1.31,1.26,1.94,1.94
		c0.66,0.62,1.31,1.26,1.94,1.94c0.66,0.62,1.31,1.26,1.94,1.94c0.66,0.62,1.31,1.26,1.94,1.94c0.66,0.62,1.31,1.26,1.94,1.94
		c0.66,0.62,1.31,1.26,1.94,1.94c0.66,0.62,1.31,1.26,1.94,1.94c0.66,0.62,1.31,1.26,1.94,1.94c0.66,0.62,1.31,1.26,1.94,1.94
		c0.66,0.62,1.31,1.26,1.94,1.94c0.66,0.62,1.31,1.26,1.94,1.94c0.66,0.62,1.31,1.26,1.94,1.94c0.66,0.62,1.31,1.26,1.94,1.94
		c0.66,0.62,1.31,1.26,1.94,1.94c0.66,0.62,1.31,1.26,1.94,1.94c1.68,1.58,3.29,3.34,4.75,5.34l1.5,2.03l0.93,2.36
		c6.53,16.54-3.26,29.83-7.98,36.22c-0.52,0.71-1.04,1.41-1.53,2.1c-0.98,1.52-1.96,3.03-2.93,4.55c0,0-28.29,35.94-14.52,108.96
		c0.33,1.8-9.52,4.92-10.79,5.97c0,0-13.65,11.34-53.93,0.45c0.12,0.12,0.23,0.22,0.35,0.35c0.67,0.62,1.32,1.27,1.94,1.94
		c0.67,0.62,1.32,1.27,1.94,1.94c0.67,0.62,1.32,1.27,1.94,1.94c0.67,0.62,1.32,1.27,1.94,1.94c0.67,0.62,1.32,1.27,1.94,1.94
		c0.67,0.62,1.32,1.27,1.94,1.94c0.67,0.62,1.32,1.27,1.94,1.94c0.67,0.62,1.32,1.27,1.94,1.94c0.67,0.62,1.32,1.27,1.94,1.94
		c0.67,0.62,1.32,1.27,1.94,1.94c0.67,0.62,1.32,1.27,1.94,1.94c0.67,0.62,1.32,1.27,1.94,1.94c0.67,0.62,1.32,1.27,1.94,1.94
		c5.05,4.74,9.08,10.83,11.67,17.4c3.24,1.58,6.61,3.58,9.79,6.22c0.38,0.28,0.74,0.62,1.1,0.92c0.38,0.3,0.75,0.62,1.11,0.93
		c0.38,0.29,0.74,0.61,1.11,0.92c0.38,0.3,0.74,0.62,1.11,0.93c0.38,0.29,0.74,0.61,1.1,0.92c1.61,1.24,3.17,2.63,4.65,4.22
		c0.66,0.61,1.31,1.26,1.94,1.94c0.66,0.61,1.31,1.26,1.94,1.94c0.66,0.61,1.31,1.26,1.94,1.94c0.66,0.61,1.31,1.26,1.94,1.94
		c0.66,0.61,1.31,1.26,1.94,1.94c0.66,0.61,1.31,1.26,1.94,1.94c0.66,0.61,1.31,1.26,1.94,1.94c0.66,0.61,1.31,1.26,1.94,1.94
		c0.66,0.61,1.31,1.26,1.94,1.94c0.66,0.61,1.31,1.26,1.94,1.94c0.66,0.61,1.31,1.26,1.94,1.94c0.66,0.61,1.31,1.26,1.94,1.94
		c0.66,0.61,1.31,1.26,1.94,1.94c0.66,0.61,1.31,1.26,1.94,1.94c0.66,0.61,1.31,1.26,1.94,1.94c0.66,0.61,1.31,1.26,1.94,1.94
		c0.66,0.61,1.31,1.26,1.94,1.94c0.66,0.61,1.31,1.26,1.94,1.94c0.66,0.61,1.31,1.26,1.94,1.94c0.66,0.61,1.31,1.26,1.94,1.94
		c0.66,0.61,1.31,1.26,1.94,1.94c1.35,1.24,2.64,2.6,3.86,4.15l1.62,2.03l1.02,2.4c4.35,10.13,3.16,21.87-3.25,32.27
		c-1.42,2.53-2.82,5.13-4.22,7.81c0,0,1.15,1.35,1.17,1.35l0.04,0.05l0.23-0.05c0,0,1.66,1.94,1.67,1.94l0.04,0.05l0.23-0.05
		c0,0,1.66,1.94,1.67,1.94l0.04,0.05l0.23-0.05c0,0,1.66,1.94,1.67,1.94l0.04,0.05l0.23-0.05c0,0,1.66,1.94,1.67,1.94l0.04,0.05
		l0.23-0.05c0,0,1.66,1.94,1.67,1.94l0.04,0.05l0.23-0.05c0,0,1.66,1.94,1.67,1.94l0.04,0.05l0.23-0.05c0,0,1.66,1.94,1.67,1.94
		l0.04,0.05l0.23-0.05c0,0,1.66,1.94,1.67,1.94l0.04,0.05l0.23-0.05l7.28,8.6C905.05,685.57,907.58,698.79,903.72,711.41z"/>
	<g>
		<path class="st1" d="M747.51,526.58c-16.35-9.53-34.22-16.95-54.12-22.36c-26.9-7.32-54.6-12.24-82.66-15.97
			c-60.49-8.06-120.76-12.93-180.4-10.48c-35.2,1.45-68.66,5.69-99.04,14.69c-12.21,3.62-18.1,1.87-22.78-6.72
			c-1.74-3.19-3.08-6.54-3.31-9.75c-0.68-9.56,2.31-11.83,17.07-14.28c53.5-8.9,109.43-11.88,167.33-10.14
			c58.17,1.74,116.1,7.35,173.19,19.86c25.23,5.53,49.83,12.6,74.68,19.04c2.2,0.57,4.67,1.41,6.1,2.5
			C752.85,500.1,759.54,518.54,747.51,526.58z"/>
		<path class="st1" d="M307.26,232.65c5.35-1.69,12.03-2.97,16.92,0.39c12.55,6.46,27.9,11.68,34.1,24.44
			c5.11,9.86-0.11,20.83-6.95,28.83c-15.24,17.71-30.48,35.7-49.57,50.26c-6.6,5.59-14.46,11.17-23.8,11.87
			c-5.96-2.56-7.6-8.81-10.03-13.8c-2.45-4.62-2.49-9.82-3.04-14.81c6.67-2.26,13-5.49,18.03-10.08
			c17.28-14.72,34.75-30.41,44.1-50.45c-12.14,1.46-23.45,6.27-34.43,10.93c-21.81,10.4-41.92,23.42-61.59,36.76
			c-12.17,9.17-25.72,17.99-33.29,30.84c-2.28,3.52-3.07,7.53-2.71,11.56c9.45,2.55,19.3,3.37,28.91,5.2
			c16.8,3.31,33.44,7.39,49.45,13.05c11.18,3.81,20.95,10.23,29.89,17.22c9.48,7.44,18.51,17.63,17.49,29.58
			c-0.51,12.62-11.78,21.66-21.37,29.67c-19.31,13.99-39.54,27.49-62.65,36.01c-17.1,6.33-35.53,11.51-54.26,9.63
			c-6.74-1.21-13.84-2.87-18.78-7.45c-5.57-5.21-8.89-11.9-13.12-17.97c-3.18-5.3-7.6-11.42-4.71-17.6
			c7.81-12.93,19.55-23.99,33.79-31.32c4.47-2.21,8.93-4.89,14.13-5.4c-0.57,6.11-0.76,12.39-2.97,18.27
			c-4.85,10.19-12.92,18.74-19.03,28.28c-1.28,1.79-1.75,3.88-2.07,5.96c17.28,1.95,33.72-4.43,49.64-9.46
			c29.98-10.53,58.47-28.23,73.92-54.14c-9.59-8.18-23.38-9.32-35.44-12.83c-21.62-4.98-43.85-7.17-65.76-10.8
			c-3.21-0.51-6.03-2.19-7.81-4.64c-6.04-8.09-7.95-17.84-11.43-26.92c-2.79-7.95-4.5-16.94-0.92-24.92
			c3.42-7.24,8.96-13.43,14.57-19.4c15.48-15.87,34.4-28.74,54.55-39.51C261.64,248.3,283.85,238.83,307.26,232.65z"/>
		<g>
			<g>
				<path class="st1" d="M818.84,373.39c-1.36-0.06-2.71-0.16-4.04-0.25c-8.26,12.64-15.34,26.18-26.78,36.89
					c-6.15,5.97-12.98,13.54-22.98,13.27c-2.58-11.43-1.62-23.29,1.48-34.54c6.06-23.28,19.11-44.42,32.41-64.92
					c4.22-6.1,10.61-12.64,7.57-20.35c-4.18-5.67-11.32-8.72-17.92-11.66c-2.29-1.22-5.03-1.1-7.54-0.8
					c-12.55,5.57-23.29,14.39-36.78,18.18c1.2-8.68-2.64-18.23-11.91-22.11c-9.87,2.88-19.11,7.98-25.53,15.35
					c-2.36,2.63-4.74,5.67-4.53,9.21c0.09,9.9,7.7,19.08,18.24,22.07c-8.01,21.36-15.48,42.98-26.28,63.37
					c-4.42,7.15-8.83,14.77-16.34,19.73c-2.55-5.39-1.85-11.31-1.85-17.01c1.08-14.12,4.92-27.87,9.28-41.44
					c0.91-2.86,1.84-5.71,2.79-8.55c2.33-7,6.45-13.6,7.38-20.91c0.73-5.13-5.14-7.95-9.68-9.5c-7.03-2.14-13.16-6.33-20.57-7.49
					c-3.16,9.12-6.08,18.32-9.46,27.37c-1.66,4.08-3.32,8.17-5.03,12.27c-7.51,18.01-15.92,35.86-29.13,51.13
					c-4.33,4.47-8.55,9.57-15.03,11.62c-0.87-7.28-0.48-14.63,0.06-21.93c1.98-13.99,7.93-27.2,13.78-40.2
					c3.5-6.74,6.75-13.62,11.01-19.99c0.76-1.13,1.54-2.23,2.37-3.32c5.83-8.02,11.26-17.23,21.32-21.57
					c5.14-3.02,11.72-0.34,17.14-2.12c3.17-0.79,2.91-4.83,0.48-6.27c-5.31-3.74-12.26-4.64-18.63-6.05
					c-7.15-1.2-15.22-3.59-21.92,0.14c-9.06,4.17-16.48,10.23-22.66,17.27c-6.92,7.84-12.29,16.89-16.72,25.91
					c-6.85,14.59-12.22,29.76-15.36,45.34c-0.57,6.88-0.6,13.82-0.12,20.71c1.35,6.31,4.47,12.48,9.88,16.83
					c7.14,6.04,16.17,12.26,26.6,11.06c11.61-1.88,18.82-11.46,23.51-20.38c3.95-6.05,5.1-13.34,10.01-18.9
					c1.23,9.98,0.56,21.26,7.66,29.68c7.29,6.53,18.12,10.69,28.5,9.52c9.24-3.56,14.68-11.68,19.69-19.07
					c5.05-7.14,8.86-14.9,12.24-22.79c7.09-14.57,13.63-29.41,18.28-44.77c1.8-5.36,3.03-11.22,7.14-15.62
					c7.54-1.85,14.7-4.62,21.87-7.4c-9.78,16.85-18.23,34.42-23.27,52.95c-4.73,13.78-6.58,28.36-5.04,42.74
					c0.8,7.02,6.02,13.03,12.59,16.66c10.74,6.55,25.95,7.89,36.99,1.18c8.41-5.35,14.64-12.88,20.53-20.34
					c6.8-8.12,14.22-16.27,17.28-26.27C822.29,382.53,822.83,377.18,818.84,373.39z M724.38,317.19c-2.86,0.04-5.73,0.08-8.58,0.04
					c1.45-5.22,5.22-9.95,10.4-12.71C726.46,308.8,726.13,313.15,724.38,317.19z"/>
			</g>
		</g>
		<path class="st1" d="M566.32,328.93c-5.06-2.81-10.68-5.06-16.69-5.43c-1.67,17.87-7.24,29.81-16.69,45.64
			c-6.85,11.77-13.89,23.68-24.06,33.47c-5.68,5.76-12.48,12.05-21.42,13.02c-1.1-20.38,2.9-40.99,12.07-59.7
			c8.2-16.53,19.65-31.74,33.4-44.96c4.97-5.18,12.31-0.58,18.44-0.88c0.54-6.76-7.22-10.58-13.16-12.97
			c-8.56-2.79-18.19-6.88-27.23-3.37c-8.67,2.87-14.07,10.03-19.15,16.54c-11.25,15.57-19.06,32.98-24.44,50.83
			c-3.53,10.38-5.25,21.19-5.72,31.99c-4.72,9.99-11.39,19.81-21.37,26.26c-0.31-3.68-0.5-7.38-1.47-10.98
			c-2.74-29.23,3.36-58.34,10.71-86.71c1.36-5.05,4.74-10.76,1.22-15.72c-5.15-6.82-15.13-7.76-23.55-7.89
			c-4.28,13.87-8.84,27.76-15.83,40.79c-9.46,18.86-22.59,35.94-34.97,53.32c-2.9,4.16-6.43,7.94-10.21,11.49
			c-1.58-17.1,4.02-33.78,8.89-50.11c3.36-11.2,7.17-22.29,10.53-33.47c0.96-5,2.85-11.24-1.51-15.39
			c-7.6-5.66-18.09-7.08-27.69-6.17c1.67,9.67-2.86,18.73-5.67,27.84c-7.07,22.47-15.87,44.95-16.56,68.5
			c0.14,8.09-1.18,16.6,2.88,24.14c2.35,5.05,8.42,7.37,13.8,9.07c4.7,1.17,9.48,2.9,14.44,2.44c14.88-10.75,24.55-26.03,33.29-41
			c3.64-5.52,5.9-11.76,10.42-16.81c0.65,7.02-1.42,13.99-0.33,20.99c0.21,11.02,1.17,22.86,8.35,32.22
			c7.43,6.91,18.77,11.14,29.48,9.06c10.11-4.32,15.3-13.89,21.34-21.79c2.42-0.32,3.36,2.58,5.1,3.68
			c6.99,6.5,16.08,14.27,27.08,11.82c9.67-1.79,15.32-9.49,21.81-15.33c0.04,2.05-0.21,4.08-0.78,6.07
			c-6.72,23.65-23.17,86.55-29.66,110.27c-0.06,0.23-0.13,0.47-0.21,0.7c-0.32,0.94-0.63,1.9-0.91,2.86
			c-1.49,5.15,0.12,10.71,4.22,14.17c7.79,6.57,18.69,10.53,29.2,7.43c3.43-1.18,2.7-4.92,3.28-7.53
			c2.71-16.51,14.48-72.39,19.05-88.62c4.89-19.74,9.21-39.62,16.1-58.9c5.71-18.29,11.34-31.24,12.32-50.29
			C574.4,342.23,573.35,333.62,566.32,328.93z"/>
		<g>
			<g>
				<path class="st0" d="M340.7,556.85c7.97-0.78,16.05-1.84,24.03-0.84c3.88,0.56,8.06,2.46,9.05,6.25
					c2.19,6.76-0.96,13.6-3.82,19.8c-1.62,3.23-2.71,7.56-7.07,8.42c-5.03,0.97-10.32,0.86-15.25-0.29
					c-4.37-0.99-8.97-4.33-8.21-8.93C340.36,573.14,342.03,565,340.7,556.85z"/>
				<path class="st0" d="M839.43,640.2c-1.66,0.31-3.6-0.12-4.99,0.92c-2.82,4.38-4.43,9.3-6.74,13.91
					c-5.96,12.76-13.82,24.89-23.98,35.24c-3.52,3.42-8.19,5.66-12.98,7.07c-2.67-5.51-2.91-11.65-3.5-17.58
					c-1.37-16.56,3.38-32.94,8.6-48.72c6.27-15.88,13.15-31.61,21.67-46.62c2.82-4.46,4.2-9.78,2.1-14.68
					c-3.94-4.95-10.38-7.25-16.26-9.65c-4-1.7-9.13-2.24-12.95,0.18c-10.84,7.15-20.65,15.78-32.54,21.44
					c-0.45-6.5-1.99-13.51-7.54-17.97c-2.44-1.87-5.48-4.52-8.93-3.02c-10.79,4.62-19.9,12.83-24.99,22.74
					c-2.15,11.15,6.75,23.45,19.08,24.91c0.27,2.06,0.38,4.16-0.35,6.17c-3.95,13.16-6.28,26.69-11.04,39.64
					c-2.93,10.05-6.9,20.18-14.53,28.12c-11.53,12.67-28.89,19.13-45.98,22.27c-1.88-10.32-3.11-20.84-2.95-31.35
					c1.04-4.62-0.98-10.78,3.73-14.04c12.7-9.26,26.13-18.06,36.36-29.81c7.57-8.81,13.06-20.08,11.39-31.43
					c-0.61-9.63-5.6-19.55-14.56-24.72c-7.51-2.06-15.84-3.61-23.59-1.52c-7.47,5.07-13.32,11.94-18.41,19.06
					c-13.74,22.01-23.56,46.38-27.28,71.48c-3.03,10.56-6.14,21.21-11.3,31.12c-3.14,5.61-6.28,11.74-12.28,15.22
					c-3.54-28.32,0.36-56.94,4.75-85.1c3.94-25.61,9.2-51.21,9.57-77.08c-0.76-5.26-2.85-11.06-8.23-13.71
					c-6.35-3.23-13.8-3.74-20.91-4.53c-1.8-0.56-4.12,0.74-4.05,2.57c0.26,6.11,1.88,12.18,1.19,18.34
					c-3.74,23.08-6.85,46.26-11.75,69.19c-4.97,27.02-12.44,54.36-28.5,77.88c-4.33,5.3-9.02,11.48-16.34,13.17
					c-2.82-17.11,0.41-34.51,4.72-51.26c4.42-15.61,8.82-31.4,16.7-45.92c2.09-3.46,4-7.28,7.59-9.64
					c5.05-3.99,13.25-0.39,17.53-5.65c-1.46-1.83-2.72-3.94-4.95-5.03c-7.44-2.6-15.57-3.01-23.42-1.75
					c-10.84,0.61-19.78,7.76-25.88,15.62c-11.17,14.17-16.7,31.22-20.95,47.98c-1.7,9.26-4.02,18.47-4.35,27.87
					c-0.36,7.67-4.3,14.65-7.71,21.52c-3.87,7.32-8.67,14.63-15.8,19.61c-3.87-14.25-3.17-29.26-1.15-43.8
					c1.9-18.91,4.11-37.83,7.79-56.57c1.05-4.29,1.05-8.63,0.65-12.94c-0.38-3.83-2.77-7.18-6.27-8.81c-3.2-1.5-6.41-2.99-9.94-3.72
					c-4.69-0.95-9.78,0.93-12.38,4.72c-10.39,13.67-18.08,28.94-28.56,42.56c-2.03-10.08,1.57-20.22,0.35-30.34
					c-0.34-2.95-0.54-6.33-1.42-9.39c-1.28-4.52-5.38-7.64-10.05-7.89c-6.71-0.35-13.58,0.52-19.76,2.95
					c1.2,8.42,1.17,16.97-0.26,25.39c-2.71,19.95-5.83,39.87-7.47,59.91c-0.21,7.37-4.83,13.73-7.97,20.3
					c-4.11,8.49-9.51,16.53-16.71,23.11c-0.96,0.92-2.23,1.42-3.45,1.97c-2.03-9.61-1.65-19.41-1.85-29.16
					c1.8-23.56,4.6-47.17,10.3-70.3c1.57-5.87,4.56-11.74,3.29-17.88c0.06-4.72-5.08-7.35-9.44-8.25
					c-7.73-0.73-15.56-0.1-23.28,0.82c0.58,10.77-1.13,21.52-3.8,32c-3.58,19.96-8.04,39.94-8.15,60.2
					c0.95,13.49,0.88,28.03,9.29,39.61c3.19,4.81,9.53,6.13,14.78,8.24c6.58,2.77,15.26,2.44,20.71-2.47
					c5.73-5.04,10.39-11.04,14.19-17.42c1.41,4.72-0.76,11.02,4.27,14.13c5.61,4.73,13.71,4.46,20.8,3.34
					c3.89-10.77,3.95-22.22,6.33-33.24c1.88-15.87,8.56-30.81,15.51-45.33c3.45-5.62,5.57-12.42,11.43-16.45
					c1.02,10.1-1.26,20.21-1.22,30.34c-1.27,11.19,0.3,22.36,1.65,33.42c1.15,9.64,6.7,19.2,16.24,23.68
					c7.03,3.51,16.4,6.84,23.86,2.1c9.77-6.19,13.43-17.24,20.88-25.24c5.84,7.93,14.39,14.35,24.55,16.93
					c8.6,2.54,18.6-0.08,24.91-6.1c9.56-8.72,12.8-21.23,18.05-32.14c0.85,0.01,0.51,0.01,1.36,0.03
					c2.66,6.15,2.62,13.07,5.92,19.04c3.61,8.26,13.62,11.93,22.64,12.84c4.57,0.35,9.92,1.19,13.73-1.89
					c8.63-6.15,12.44-15.8,17.71-24.19c5.66,11.17,15.49,21.41,29.15,23.95c16.54,2.76,34.02-2.67,47.14-12.28
					c4.34-3.38,9.29-6.19,12.72-10.44c7.67-9.9,12.93-21.21,16.18-32.92c5.73-16.23,10.84-32.67,13.85-49.5
					c1.37-4.97,1.7-10.54,5.31-14.72c7.38-2.51,14-6.45,21.1-9.52c-12.75,27.24-20.35,56.66-21.12,86.2
					c0.27,9.94,2.22,21.41,11.4,27.68c10.56,7.49,26.32,10.08,38.25,3.33c9.28-4.74,14.86-13.49,20.16-21.62
					c5.88-9.53,13.3-18.58,16.31-29.34C844.28,651.73,843.53,645.06,839.43,640.2z M675.29,612.77c4.33-9.72,8.02-20.05,15.2-28.34
					c3.52,12.33,0.58,25.86-7.4,36.4c-4.37,5.57-8.9,11.31-15.18,15.16C669.19,628,672.44,620.39,675.29,612.77z M739.03,590.75
					c-2.77,1.4-5.86,1.77-8.94,1.93c0.47-5.79,4.43-11,9.33-14.5C740.08,582.36,739.61,586.57,739.03,590.75z"/>
			</g>
			<path class="st0" d="M410.76,520.69c-2.49-8.85-10.86-15.69-20.65-16.33c-11.64-0.65-23.32,1.67-34.94,3.1
				c-35.84,5.65-71.81,12.62-106.25,24.84c-12.34,3.64-24.45,9.13-34.42,17.32c-1.11,0.93-2.12,1.92-3.07,2.98
				c-0.01,0-0.02-0.01-0.02-0.01l-0.01,0.04c-0.02,0.02-0.03,0.03-0.05,0.05l0.03,0.03l-3.84,20.14l0,0l-1.5,7.86c0,0,0-0.01,0-0.01
				l-7.47,39.09l-6.12,32.05l-4.37,22.86c-0.59,6.06-2.57,11.94-3.91,17.89c-5.98,22.56-12.71,45.26-24.47,66.03
				c-2.59,4.56-5.96,9.1-11.06,11.47c-3.83,0.54-7.74-0.08-11.56,0.87c0.67,2.05,0.33,5,2.88,5.92c11.61,5.62,27.04,8.17,38.83,0.72
				c14.22-9.2,19.19-25.47,25.19-39.65c9.9-27.02,18.23-54.6,24.07-82.55c10.29-1.65,20.53-3.74,30.87-5.1
				c15.49-2.78,31.82-4.75,45.39-13.62c6.3-4.32,9.63-12.1,7.61-18.99c-2.36-7.12-4.08-14.56-7.79-21.12
				c-1.07,0.36-2.16,0.71-3.25,1.05c-0.71,2.51-0.59,5.54-2.82,7.48c-5.61,4.27-12.11,7.54-19.09,8.87
				c-14.05,4.28-28.64,5.93-42.89,9.31c-0.86,0.15-1.72,0.33-2.58,0.49c0.92-6.78,1.7-13.58,2.28-20.4
				c0.14-2.22,0.39-4.44,0.65-6.67l0,0l4.89-28.86c45.02-18.37,92.84-30.71,141.01-32.89c6.24-0.17,12.84-0.77,18.6,1.6
				c3.1,1.57,4.8,4.71,6.82,7.31C414.88,538.13,413.63,527.74,410.76,520.69z"/>
		</g>
	</g>
	<path d="M198,545.83c0,1.66-1.3,7.58-1.3,8.51c0,0.92-15.03,4.83-15.03,4.83l2.05-14.24l0.8-5.64
		C187.93,516.6,198,544.15,198,545.83z"/>
	<path class="st1" d="M1004.78,539.63c8.56-8.07,18.42-15.51,25.97-24.82c27.61-34.09,23.64-82.11-8.18-108.47
		c-21.26-17.61-52.37-20.43-76.05-6.88c-21.96,12.56-34.03,38.36-30.07,64.3c3.35,21.98,19.83,37.22,43.66,40.38
		c20.25,2.68,40.48-8.39,48.76-26.69c6.44-14.25,3.03-30.05-8.72-40.35c-11.01-9.65-25.79-11.42-37.57-4.13
		c-3.14,1.94-6,4.61-8.37,7.46c-4.16,5-4.44,10.48,0.45,15.19c4.8,4.64,10.4,4.78,15.15,0.14c5.48-5.35,11-6.34,16.47-0.94
		c5.87,5.79,3.75,12.13-0.46,17.89c-5.84,7.99-18.05,11.21-29.2,7.98c-10.97-3.17-17.71-11.78-18.46-23.56
		c-1.18-18.61,8.98-34.97,25.49-41.04c18.63-6.85,40.96-0.43,52.42,15.51c13.97,19.42,14.02,40.08,2.98,60.48
		c-12.26,22.66-31.74,34.47-57.86,33.54c-34.23-1.22-64.26-29.49-70.17-65.47c-5.96-36.31,12.77-69.6,46.97-83.45
		c43.62-17.66,93.27,1.88,112.93,44.46c19.97,43.25,2.78,93.75-39.35,115.51C1009.18,537.91,1006.64,538.83,1004.78,539.63z"/>
</g>
</svg>
